TITLE ""
FILE "1Q_t_1830-1838.mp3" MP3
  TRACK 01 AUDIO
    TITLE "1Q_t_1830-1838_01"
    INDEX 01 00:00:00
  TRACK 02 AUDIO
    TITLE "1Q_t_1830-1838_02"
    INDEX 01 00:01:29
  TRACK 03 AUDIO
    TITLE "1Q_t_1830-1838_03"
    INDEX 01 00:01:39
  TRACK 04 AUDIO
    TITLE "1Q_t_1830-1838_04"
    INDEX 01 00:05:17
  TRACK 05 AUDIO
    TITLE "1Q_t_1830-1838_05"
    INDEX 01 00:05:25
  TRACK 06 AUDIO
    TITLE "1Q_t_1830-1838_06"
    INDEX 01 00:09:56
  TRACK 07 AUDIO
    TITLE "1Q_t_1830-1838_07"
    INDEX 01 00:10:30
  TRACK 08 AUDIO
    TITLE "1Q_t_1830-1838_08"
    INDEX 01 00:11:53
  TRACK 09 AUDIO
    TITLE "1Q_t_1830-1838_09"
    INDEX 01 00:11:65
  TRACK 10 AUDIO
    TITLE "1Q_t_1830-1838_10"
    INDEX 01 00:18:22
  TRACK 11 AUDIO
    TITLE "1Q_t_1830-1838_11"
    INDEX 01 00:18:30
  TRACK 12 AUDIO
    TITLE "1Q_t_1830-1838_12"
    INDEX 01 00:23:51
  TRACK 13 AUDIO
    TITLE "1Q_t_1830-1838_13"
    INDEX 01 00:24:25
  TRACK 14 AUDIO
    TITLE "1Q_t_1830-1838_14"
    INDEX 01 00:25:30
  TRACK 15 AUDIO
    TITLE "1Q_t_1830-1838_15"
    INDEX 01 00:25:38
  TRACK 16 AUDIO
    TITLE "1Q_t_1830-1838_16"
    INDEX 01 00:26:72
  TRACK 17 AUDIO
    TITLE "1Q_t_1830-1838_17"
    INDEX 01 00:27:07
  TRACK 18 AUDIO
    TITLE "1Q_t_1830-1838_18"
    INDEX 01 00:31:21
  TRACK 19 AUDIO
    TITLE "1Q_t_1830-1838_19"
    INDEX 01 00:31:68
  TRACK 20 AUDIO
    TITLE "1Q_t_1830-1838_20"
    INDEX 01 00:33:18
  TRACK 21 AUDIO
    TITLE "1Q_t_1830-1838_21"
    INDEX 01 00:33:29
  TRACK 22 AUDIO
    TITLE "1Q_t_1830-1838_22"
    INDEX 01 00:35:71
  TRACK 23 AUDIO
    TITLE "1Q_t_1830-1838_23"
    INDEX 01 00:36:06
  TRACK 24 AUDIO
    TITLE "1Q_t_1830-1838_24"
    INDEX 01 00:40:73
  TRACK 25 AUDIO
    TITLE "1Q_t_1830-1838_25"
    INDEX 01 00:41:43
  TRACK 26 AUDIO
    TITLE "1Q_t_1830-1838_26"
    INDEX 01 00:42:50
  TRACK 27 AUDIO
    TITLE "1Q_t_1830-1838_27"
    INDEX 01 00:42:60
  TRACK 28 AUDIO
    TITLE "1Q_t_1830-1838_28"
    INDEX 01 00:44:35
  TRACK 29 AUDIO
    TITLE "1Q_t_1830-1838_29"
    INDEX 01 00:44:43
  TRACK 30 AUDIO
    TITLE "1Q_t_1830-1838_30"
    INDEX 01 00:49:54
  TRACK 31 AUDIO
    TITLE "1Q_t_1830-1838_31"
    INDEX 01 00:50:26
  TRACK 32 AUDIO
    TITLE "1Q_t_1830-1838_32"
    INDEX 01 00:51:37
  TRACK 33 AUDIO
    TITLE "1Q_t_1830-1838_33"
    INDEX 01 00:51:47
  TRACK 34 AUDIO
    TITLE "1Q_t_1830-1838_34"
    INDEX 01 00:54:31
  TRACK 35 AUDIO
    TITLE "1Q_t_1830-1838_35"
    INDEX 01 00:54:39
  TRACK 36 AUDIO
    TITLE "1Q_t_1830-1838_36"
    INDEX 01 00:58:59
  TRACK 37 AUDIO
    TITLE "1Q_t_1830-1838_37"
    INDEX 01 00:59:29
  TRACK 38 AUDIO
    TITLE "1Q_t_1830-1838_38"
    INDEX 01 01:00:36
  TRACK 39 AUDIO
    TITLE "1Q_t_1830-1838_39"
    INDEX 01 01:01:06
  TRACK 40 AUDIO
    TITLE "1Q_t_1830-1838_40"
    INDEX 01 01:02:11
  TRACK 41 AUDIO
    TITLE "1Q_t_1830-1838_41"
    INDEX 01 01:02:23
  TRACK 42 AUDIO
    TITLE "1Q_t_1830-1838_42"
    INDEX 01 01:03:25
  TRACK 43 AUDIO
    TITLE "1Q_t_1830-1838_43"
    INDEX 01 01:03:32
  TRACK 44 AUDIO
    TITLE "1Q_t_1830-1838_44"
    INDEX 01 01:09:39
  TRACK 45 AUDIO
    TITLE "1Q_t_1830-1838_45"
    INDEX 01 01:10:15
  TRACK 46 AUDIO
    TITLE "1Q_t_1830-1838_46"
    INDEX 01 01:11:34
  TRACK 47 AUDIO
    TITLE "1Q_t_1830-1838_47"
    INDEX 01 01:11:55
  TRACK 48 AUDIO
    TITLE "1Q_t_1830-1838_48"
    INDEX 01 01:13:05
  TRACK 49 AUDIO
    TITLE "1Q_t_1830-1838_49"
    INDEX 01 01:13:13
  TRACK 50 AUDIO
    TITLE "1Q_t_1830-1838_50"
    INDEX 01 01:18:75
  TRACK 51 AUDIO
    TITLE "1Q_t_1830-1838_51"
    INDEX 01 01:19:47
  TRACK 52 AUDIO
    TITLE "1Q_t_1830-1838_52"
    INDEX 01 01:20:56
  TRACK 53 AUDIO
    TITLE "1Q_t_1830-1838_53"
    INDEX 01 01:20:66
  TRACK 54 AUDIO
    TITLE "1Q_t_1830-1838_54"
    INDEX 01 01:22:65
  TRACK 55 AUDIO
    TITLE "1Q_t_1830-1838_55"
    INDEX 01 01:22:73
  TRACK 56 AUDIO
    TITLE "1Q_t_1830-1838_56"
    INDEX 01 01:27:52
